<svg id="Layer_3" data-name="Layer 3" xmlns="http://www.w3.org/2000/svg" xmlns:xlink="http://www.w3.org/1999/xlink" viewBox="0 0 77 77"><defs><style>.cls-1{fill:url(#linear-gradient);}</style><linearGradient id="linear-gradient" x1="486.96619" y1="670.03381" x2="561.03381" y2="595.96619" gradientUnits="userSpaceOnUse"><stop offset="0" stop-color="#946700"/><stop offset="0.06757" stop-color="#946700"/><stop offset="0.76667" stop-color="#ffe2aa"/><stop offset="1" stop-color="#946700"/></linearGradient></defs><title>INVENTORY_SELECTED_FRAME</title><path class="cls-1" d="M557.5,671.5h-67a5.00588,5.00588,0,0,1-5-5v-67a5.00588,5.00588,0,0,1,5-5h67a5.00588,5.00588,0,0,1,5,5v67A5.00588,5.00588,0,0,1,557.5,671.5Zm-67-75a3.00328,3.00328,0,0,0-3,3v67a3.00328,3.00328,0,0,0,3,3h67a3.00328,3.00328,0,0,0,3-3v-67a3.00328,3.00328,0,0,0-3-3Z" transform="translate(-485.5 -594.5)"/></svg>